<svg width="20" height="20" viewBox="0 0 20 20" fill="none" xmlns="http://www.w3.org/2000/svg">
<path d="M4 4L16 16" stroke="#737D7D" stroke-width="1.5" stroke-linecap="round"/>
<path d="M10 12.5C11.3807 12.5 12.5 11.3807 12.5 10C12.5 8.61929 11.3807 7.5 10 7.5C8.61929 7.5 7.5 8.61929 7.5 10C7.5 11.3807 8.61929 12.5 10 12.5Z" stroke="#737D7D" stroke-width="1.5" stroke-miterlimit="10" stroke-linecap="round" stroke-linejoin="round"/>
<path d="M17.1012 9.224C17.4662 9.67519 17.4662 10.3248 17.1012 10.776C15.9651 12.1805 13.1104 15 9.99998 15C6.88951 15 4.03488 12.1805 2.89873 10.776C2.53376 10.3248 2.53376 9.67519 2.89873 9.224C4.03488 7.81953 6.88951 5 9.99998 5C13.1104 5 15.9651 7.81953 17.1012 9.224Z" stroke="#737D7D" stroke-width="1.5" stroke-miterlimit="10" stroke-linecap="round" stroke-linejoin="round"/>
</svg>
