<svg width="48" height="48" viewBox="0 0 48 48" fill="none" xmlns="http://www.w3.org/2000/svg">
<rect width="48" height="48" rx="10" fill="#142525"/>
<rect x="1.5" y="1.5" width="45" height="45" rx="8.5" stroke="white" stroke-opacity="0.15" stroke-width="3"/>
<g clip-path="url(#clip0_58_9951)">
<mask id="mask0_58_9951" style="mask-type:luminance" maskUnits="userSpaceOnUse" x="14" y="14" width="20" height="20">
<path d="M32.9999 33V15.0001H15V33H32.9999Z" fill="white" stroke="white" stroke-width="2"/>
</mask>
<g mask="url(#mask0_58_9951)">
<path d="M19.1995 16C19.0594 16 18.9206 16.0276 18.7911 16.0812C18.6616 16.1349 18.5439 16.2135 18.4448 16.3126C18.3458 16.4116 18.2673 16.5292 18.2138 16.6586C18.1603 16.788 18.1327 16.9267 18.1328 17.0667V31.2711C18.1328 31.6737 18.4582 32.0001 18.8608 32.0001H18.8635C18.9701 32.0002 19.0756 31.9791 19.174 31.9382C19.2724 31.8973 19.3617 31.8373 19.4368 31.7617C20.1435 31.0556 22.2288 28.9702 23.0902 28.1105C23.3302 27.8692 23.6582 27.7334 23.9995 27.7334C24.3409 27.7334 24.6689 27.8692 24.9089 28.1105C25.7729 28.9729 27.8689 31.0684 28.5676 31.7681C28.7169 31.9167 28.9168 32.0001 29.1275 32.0001C29.5356 32.0001 29.8662 31.6697 29.8662 31.262V17.0667C29.8663 16.9266 29.8388 16.7878 29.7852 16.6584C29.7316 16.5289 29.653 16.4113 29.554 16.3123C29.4549 16.2132 29.3373 16.1346 29.2078 16.081C29.0784 16.0275 28.9396 15.9999 28.7995 16H19.1995Z" stroke="white" stroke-width="2" stroke-miterlimit="10" stroke-linecap="round" stroke-linejoin="round"/>
</g>
</g>
<defs>
<clipPath id="clip0_58_9951">
<rect width="20" height="20" fill="white" transform="translate(14 14)"/>
</clipPath>
</defs>
</svg>
