<svg width="30" height="30" viewBox="0 0 30 30" fill="none" xmlns="http://www.w3.org/2000/svg">
<g clip-path="url(#clip0_58_7942)">
<mask id="mask0_58_7942" style="mask-type:luminance" maskUnits="userSpaceOnUse" x="0" y="0" width="30" height="30">
<path d="M28.9999 29V1.00009H1V29H28.9999Z" fill="white" stroke="white" stroke-width="2"/>
</mask>
<g mask="url(#mask0_58_7942)">
<path d="M7.80121 2.99999C7.59099 2.99996 7.38281 3.04134 7.18859 3.12178C6.99436 3.20222 6.81788 3.32013 6.66922 3.46879C6.52073 3.61735 6.40296 3.79372 6.32265 3.98781C6.24234 4.18191 6.20106 4.38992 6.20117 4.59998V25.9065C6.20117 26.5105 6.68919 27.0001 7.29318 27.0001H7.29721C7.45706 27.0002 7.61534 26.9686 7.76293 26.9072C7.91052 26.8459 8.04451 26.7559 8.15718 26.6425C9.21717 25.5833 12.3452 22.4553 13.6372 21.1657C13.9972 20.8037 14.4892 20.6001 15.0013 20.6001C15.5133 20.6001 16.0053 20.8037 16.3652 21.1657C17.6612 22.4593 20.8053 25.6025 21.8533 26.6521C22.0773 26.8749 22.3772 27.0001 22.6933 27.0001C23.3053 27.0001 23.8013 26.5045 23.8013 25.8929V4.59998C23.8014 4.38982 23.7601 4.18171 23.6797 3.98753C23.5994 3.79335 23.4815 3.61692 23.3329 3.46832C23.1843 3.31972 23.0079 3.20187 22.8137 3.12151C22.6195 3.04115 22.4114 2.99985 22.2012 2.99999H7.80121Z" stroke="white" stroke-width="2" stroke-miterlimit="10" stroke-linecap="round" stroke-linejoin="round"/>
</g>
</g>
<defs>
<clipPath id="clip0_58_7942">
<rect width="30" height="30" fill="white"/>
</clipPath>
</defs>
</svg>
