<svg width="16" height="18" viewBox="0 0 16 18" fill="none" xmlns="http://www.w3.org/2000/svg">
<g clip-path="url(#clip0_58_10213)">
<mask id="mask0_58_10213" style="mask-type:luminance" maskUnits="userSpaceOnUse" x="0" y="0" width="16" height="18">
<path d="M15 17V1.00005H1V17H15Z" fill="white" stroke="white" stroke-width="2"/>
</mask>
<g mask="url(#mask0_58_10213)">
<path d="M4.16 3.60001C4.04788 3.6 3.93685 3.62207 3.83326 3.66497C3.72967 3.70787 3.63555 3.77076 3.55627 3.85004C3.47707 3.92927 3.41426 4.02333 3.37143 4.12685C3.3286 4.23037 3.30658 4.34131 3.30664 4.45334V15.8168C3.30664 16.139 3.56692 16.4001 3.88904 16.4001H3.8912C3.97645 16.4001 4.06086 16.3833 4.13958 16.3506C4.2183 16.3178 4.28976 16.2698 4.34985 16.2094C4.91517 15.6445 6.58346 13.9762 7.27254 13.2884C7.46454 13.0953 7.72692 12.9867 8.00002 12.9867C8.2731 12.9867 8.5355 13.0953 8.72747 13.2884C9.41868 13.9783 11.0955 15.6547 11.6544 16.2145C11.7739 16.3333 11.9339 16.4001 12.1024 16.4001C12.4288 16.4001 12.6934 16.1357 12.6934 15.8096V4.45334C12.6934 4.34126 12.6714 4.23026 12.6285 4.1267C12.5857 4.02314 12.5228 3.92904 12.4436 3.84979C12.3643 3.77054 12.2702 3.70768 12.1667 3.66483C12.0631 3.62197 11.9521 3.59994 11.84 3.60001H4.16Z" stroke="white" stroke-width="1.5" stroke-miterlimit="10" stroke-linecap="round" stroke-linejoin="round"/>
</g>
</g>
<defs>
<clipPath id="clip0_58_10213">
<rect width="16" height="18" fill="white"/>
</clipPath>
</defs>
</svg>
