<svg width="20" height="21" viewBox="0 0 20 21" fill="none" xmlns="http://www.w3.org/2000/svg">
<g clip-path="url(#clip0_2003_2320)">
<path d="M0 0.5H20V20.5H0V0.5Z" fill="#000066"/>
<path fill-rule="evenodd" clip-rule="evenodd" d="M2.14453 14.8984L3.73047 15.5L4.25391 13.8828L4.77344 15.5L6.36328 14.8984L5.42188 16.3164L6.88281 17.1836L5.19141 17.3281L5.42578 19.0117L4.25391 17.7812L3.08203 19.0117L3.31641 17.332L1.62109 17.1836L3.08594 16.3164M15.7812 19.1094L15.0391 19.1719L15.1445 19.9062L14.6367 19.3711L14.1289 19.9062L14.2188 19.1719L13.4844 19.1094L14.1211 18.7344L13.7109 18.1172L14.4023 18.3789L14.6289 17.6758L14.8516 18.3789L15.5469 18.1172L15.1406 18.7344M15.7734 8.17187L15.0391 8.23438L15.1406 8.96875L14.6328 8.43359L14.125 8.96875L14.2188 8.23438L13.4844 8.17187L14.1211 7.79688L13.7109 7.17969L14.4023 7.44141L14.6289 6.73828L14.8516 7.44141L15.5469 7.17969L15.1406 7.79688M11.6719 12.6172L10.9375 12.6797L11.0391 13.4102L10.5312 12.875L10.0234 13.4102L10.1211 12.6797L9.38672 12.6172L10.0234 12.2383L9.61328 11.625L10.3047 11.8867L10.5312 11.1836L10.7539 11.8867L11.4453 11.625L11.0391 12.2383M19.4141 11.5234L18.6797 11.5859L18.7812 12.3164L18.2734 11.7812L17.7656 12.3164L17.8633 11.5859L17.1289 11.5234L17.7656 11.1445L17.3555 10.5312L18.0469 10.793L18.2734 10.0898L18.5 10.793L19.1875 10.5312L18.7812 11.1445M16.2734 14.3672L15.8711 14.6172L15.9844 14.1562L15.6211 13.8516L16.0898 13.8164L16.2734 13.3789L16.4453 13.8203L16.918 13.8594L16.5586 14.1602L16.6719 14.6211" fill="white"/>
<path d="M0 0.5H10V10.5H0V0.5Z" fill="#000066"/>
<path d="M10 0.5V1.75L6.28906 5.5L10 9.15234V10.5H8.69141L4.96094 6.82812L1.32812 10.5H0V9.17188L3.63281 5.51953L0 1.94531V0.5H1.21094L4.96094 4.17188L8.59375 0.5H10Z" fill="white"/>
<path d="M3.59375 6.82812L3.80859 7.49219L0.820312 10.5H0V10.4414L3.59375 6.82812ZM6.01562 6.59375L7.07031 6.75L10 9.62109V10.5L6.01562 6.59375ZM10 0.5L6.25 4.32812L6.17188 3.46875L9.10156 0.5H10ZM0 0.519531L3.76953 4.21094L2.61719 4.05469L0 1.45703V0.519531Z" fill="#C8102E"/>
<path d="M3.4375 0.5V10.5H6.5625V0.5H3.4375ZM0 3.9375V7.0625H10V3.9375H0Z" fill="white"/>
<path d="M0 4.5625V6.4375H10V4.5625H0ZM4.0625 0.5V10.5H5.9375V0.5H4.0625Z" fill="#C8102E"/>
</g>
<defs>
<clipPath id="clip0_2003_2320">
<rect y="0.5" width="20" height="20" rx="4" fill="white"/>
</clipPath>
</defs>
</svg>
