<svg width="20" height="20" viewBox="0 0 20 20" fill="none" xmlns="http://www.w3.org/2000/svg">
<path d="M8.64407 12.4788V16.6441C8.64407 17.3929 9.25115 18 10 18H16.6441C17.3929 18 18 17.3929 18 16.6441V10C18 9.25115 17.3929 8.64407 16.6441 8.64407H12.4788M14.0678 2H15.9661C17.0894 2 18 2.91061 18 4.0339V5.9322M11.3559 2H5.9322H4.0339C2.91061 2 2 2.91061 2 4.0339V5.9322V11.3559M2 14.0678V15.9661C2 17.0894 2.91061 18 4.0339 18H5.9322M13.6706 13.6706L5.10902 5.10902" stroke="white" stroke-width="1.5" stroke-miterlimit="10" stroke-linecap="round" stroke-linejoin="round"/>
<path d="M14.0664 12.0339V14.0678H12.0325M6.74437 4.71191H4.71047V6.74581" stroke="white" stroke-width="1.5" stroke-miterlimit="10" stroke-linecap="round" stroke-linejoin="round"/>
</svg>
