<svg width="30" height="30" viewBox="0 0 30 30" fill="none" xmlns="http://www.w3.org/2000/svg">
<path d="M9 24C9 24 7.5 24 7.5 22.5C7.5 21 9 16.5 15 16.5C21 16.5 22.5 21 22.5 22.5C22.5 24 21 24 21 24H9ZM15 15C16.1935 15 17.3381 14.5259 18.182 13.682C19.0259 12.8381 19.5 11.6935 19.5 10.5C19.5 9.30653 19.0259 8.16193 18.182 7.31802C17.3381 6.47411 16.1935 6 15 6C13.8065 6 12.6619 6.47411 11.818 7.31802C10.9741 8.16193 10.5 9.30653 10.5 10.5C10.5 11.6935 10.9741 12.8381 11.818 13.682C12.6619 14.5259 13.8065 15 15 15Z" stroke="#737D7D" stroke-width="2"/>
</svg>
