<svg width="30" height="30" viewBox="0 0 30 30" fill="none" xmlns="http://www.w3.org/2000/svg">
<path d="M28.046 16.5558C26.789 27.512 24.1718 29.5916 13.2152 28.3349C2.25955 27.0779 0.18104 24.4602 1.4366 13.5041C2.69369 2.54796 5.31132 0.469452 16.2674 1.72655C27.2235 2.98262 29.3031 5.60025 28.046 16.5564V16.5558Z" fill="url(#paint0_linear_58_7188)"/>
<path d="M19.2405 8.43726C18.1358 8.43726 17.2517 8.87905 16.368 10.1805L12.9311 15.3607L13.25 11.3341C13.3484 9.81207 12.3909 8.43726 10.6966 8.43726C9.12513 8.43726 8.1432 9.49308 8.04484 10.8434L7.50471 18.2581C7.3819 20.0996 8.33938 21.155 9.86145 21.155C11.3835 21.155 12.341 20.0503 13.0534 19.0433L16.3676 14.0104L16.073 18.2576C15.9258 19.9763 16.8588 21.1544 18.5526 21.1544C20.124 21.1544 21.155 20.2214 21.2532 18.8222L21.7934 11.3341C21.9162 9.86098 21.2043 8.43726 19.2399 8.43726H19.2405Z" fill="url(#paint1_linear_58_7188)"/>
<path d="M13.2441 11.3377L12.9252 15.3642L13.0475 19.0468C12.3351 20.0538 11.3777 21.1585 9.85557 21.1585C8.33351 21.1585 7.37604 20.1031 7.49885 18.2616L8.03898 10.8469C8.13732 9.4966 9.11925 8.4408 10.6908 8.4408C12.3851 8.4408 13.3425 9.81559 13.2441 11.3377Z" fill="url(#paint2_linear_58_7188)"/>
<path d="M13.2555 11.1242C13.2555 9.71987 12.3474 8.43628 10.6776 8.43628C9.00775 8.43628 8.03906 9.68828 8.03906 11.0386C8.03906 12.4873 9.12596 13.6165 10.648 13.6165C12.1701 13.6165 13.2555 12.5724 13.2555 11.1242Z" fill="white"/>
<defs>
<linearGradient id="paint0_linear_58_7188" x1="31.0067" y1="45.0411" x2="1.12598" y2="0.345536" gradientUnits="userSpaceOnUse">
<stop offset="0.798146" stop-color="#F30745"/>
<stop offset="0.976597" stop-color="#FFBCCE"/>
</linearGradient>
<linearGradient id="paint1_linear_58_7188" x1="14.0856" y1="14.7332" x2="8.77486" y2="14.0591" gradientUnits="userSpaceOnUse">
<stop offset="0.15" stop-color="white"/>
<stop offset="0.62" stop-color="white" stop-opacity="0.6"/>
<stop offset="1" stop-color="white" stop-opacity="0"/>
</linearGradient>
<linearGradient id="paint2_linear_58_7188" x1="9.18681" y1="21.0622" x2="10.6276" y2="13.2041" gradientUnits="userSpaceOnUse">
<stop offset="0.15" stop-color="white"/>
<stop offset="0.62" stop-color="white" stop-opacity="0.6"/>
<stop offset="1" stop-color="white" stop-opacity="0"/>
</linearGradient>
</defs>
</svg>
