<svg width="30" height="30" viewBox="0 0 30 30" fill="none" xmlns="http://www.w3.org/2000/svg">
<path d="M24 24L19.657 19.657M19.657 19.657C20.3999 18.9142 20.9892 18.0322 21.3913 17.0616C21.7933 16.091 22.0002 15.0507 22.0002 14.0001C22.0002 12.9495 21.7933 11.9092 21.3913 10.9386C20.9892 9.96798 20.3999 9.08606 19.657 8.34318C18.9142 7.6003 18.0322 7.01102 17.0616 6.60897C16.091 6.20693 15.0507 6 14.0001 6C12.9495 6 11.9092 6.20693 10.9386 6.60897C9.96798 7.01102 9.08606 7.6003 8.34318 8.34318C6.84287 9.84349 6 11.8784 6 14.0001C6 16.1219 6.84287 18.1567 8.34318 19.657C9.84349 21.1574 11.8784 22.0002 14.0001 22.0002C16.1219 22.0002 18.1567 21.1574 19.657 19.657Z" stroke="url(#paint0_radial_58_10637)" stroke-width="2" stroke-linecap="round" stroke-linejoin="round"/>
<defs>
<radialGradient id="paint0_radial_58_10637" cx="0" cy="0" r="1" gradientUnits="userSpaceOnUse" gradientTransform="translate(18.6964 7.44643) rotate(108.435) scale(18.8043 30.755)">
<stop stop-color="#81BE70"/>
<stop offset="1" stop-color="#52A564"/>
</radialGradient>
</defs>
</svg>
