<svg width="30" height="31" viewBox="0 0 30 31" fill="none" xmlns="http://www.w3.org/2000/svg">
<path d="M24 24.0696L19.657 19.7267M19.657 19.7267C20.3999 18.9838 20.9892 18.1019 21.3913 17.1312C21.7933 16.1606 22.0002 15.1203 22.0002 14.0697C22.0002 13.0191 21.7933 11.9788 21.3913 11.0082C20.9892 10.0376 20.3999 9.15567 19.657 8.41279C18.9142 7.66991 18.0322 7.08063 17.0616 6.67858C16.091 6.27654 15.0507 6.06961 14.0001 6.06961C12.9495 6.06961 11.9092 6.27654 10.9386 6.67858C9.96798 7.08063 9.08606 7.66991 8.34318 8.41279C6.84287 9.9131 6 11.948 6 14.0697C6 16.1915 6.84287 18.2263 8.34318 19.7267C9.84349 21.227 11.8784 22.0698 14.0001 22.0698C16.1219 22.0698 18.1567 21.227 19.657 19.7267Z" stroke="white" stroke-width="2" stroke-linecap="round" stroke-linejoin="round"/>
</svg>
