<svg width="16" height="16" viewBox="0 0 16 16" fill="none" xmlns="http://www.w3.org/2000/svg">
<g clip-path="url(#clip0_58_9901)">
<mask id="mask0_58_9901" style="mask-type:luminance" maskUnits="userSpaceOnUse" x="0" y="0" width="16" height="16">
<path d="M15 15V1.00005H1V15H15Z" fill="white" stroke="white" stroke-width="2"/>
</mask>
<g mask="url(#mask0_58_9901)">
<path d="M7.99963 4.79996V7.99997L10.133 10.1333M1.59961 7.99997H2.66627M1.59961 7.99997C1.59961 11.5346 4.465 14.4 7.99963 14.4M1.59961 7.99997C1.59961 4.46534 4.465 1.59995 7.99963 1.59995M13.333 7.99997H14.3997M14.3997 7.99997C14.3997 11.5346 11.5343 14.4 7.99963 14.4M14.3997 7.99997C14.3997 4.46534 11.5343 1.59995 7.99963 1.59995M7.99963 14.4V13.3333M7.99963 2.66661V1.59995" stroke="#EA423C" stroke-width="1.5" stroke-miterlimit="10" stroke-linecap="round" stroke-linejoin="round"/>
</g>
</g>
<defs>
<clipPath id="clip0_58_9901">
<rect width="16" height="16" fill="white"/>
</clipPath>
</defs>
</svg>
