<svg width="40" height="40" viewBox="0 0 40 40" fill="none" xmlns="http://www.w3.org/2000/svg">
<path d="M38.0018 24.5769C38.0018 13.7257 28.8667 5.07948 17.7509 6.40307C9.82789 7.34647 3.54871 13.5922 2.25273 21.4653C1.64307 25.1688 2.14609 28.7108 3.48066 31.8106C3.97544 32.9597 5.07903 33.7309 6.33015 33.7309H33.6867C34.832 33.7309 35.9338 33.115 36.4031 32.0702C37.4304 29.783 38.0018 27.2467 38.0018 24.5769ZM38.0018 24.5769H34.96M5.04744 24.5769H2.00565M32.8618 11.7189L30.7952 13.7854M20.0038 6.27362V9.31542M7.14096 11.7141L9.21228 13.7854" stroke="white" stroke-width="2" stroke-miterlimit="10" stroke-linecap="round" stroke-linejoin="round"/>
<path d="M20.0006 27.6282C21.6858 27.6282 23.0519 26.262 23.0519 24.5768C23.0519 22.8916 21.6858 21.5255 20.0006 21.5255C18.3153 21.5255 16.9492 22.8916 16.9492 24.5768C16.9492 26.262 18.3153 27.6282 20.0006 27.6282Z" stroke="white" stroke-width="2" stroke-miterlimit="10" stroke-linecap="round" stroke-linejoin="round"/>
<path d="M26.4724 18.1069L22.1602 22.4191" stroke="white" stroke-width="2" stroke-miterlimit="10" stroke-linecap="round" stroke-linejoin="round"/>
</svg>
