<svg width="40" height="40" viewBox="0 0 40 40" fill="none" xmlns="http://www.w3.org/2000/svg">
<g clip-path="url(#clip0_58_9579)">
<mask id="mask0_58_9579" style="mask-type:luminance" maskUnits="userSpaceOnUse" x="0" y="0" width="40" height="40">
<path d="M38.9999 39V1.00012H1V39H38.9999Z" fill="white" stroke="white" stroke-width="2"/>
</mask>
<g mask="url(#mask0_58_9579)">
<path d="M9.46492 26.2787H4V13.7213H9.46492V26.2787Z" stroke="white" stroke-width="2" stroke-miterlimit="10" stroke-linecap="round" stroke-linejoin="round"/>
<path d="M31.9219 29.8455V29.8448C34.442 27.3253 36.0002 23.8438 36.0002 19.9998C36.0002 16.1558 34.442 12.6743 31.9219 10.1548" stroke="white" stroke-width="2" stroke-miterlimit="10" stroke-linecap="round" stroke-linejoin="round"/>
<path d="M28.2891 24.2119C29.3672 23.1344 30.0338 21.6446 30.0338 20.0001C30.0338 18.3556 29.3672 16.8658 28.2891 15.7883" stroke="white" stroke-width="2" stroke-miterlimit="10" stroke-linecap="round" stroke-linejoin="round"/>
<path d="M9.46484 13.7214V26.2788L20.8651 32.5547C21.4555 32.8797 22.1782 32.4526 22.1782 31.7786V8.22158C22.1782 7.54758 21.4555 7.1205 20.8651 7.44548L9.46484 13.7214Z" stroke="white" stroke-width="2" stroke-miterlimit="10" stroke-linecap="round" stroke-linejoin="round"/>
</g>
</g>
<defs>
<clipPath id="clip0_58_9579">
<rect width="40" height="40" fill="white"/>
</clipPath>
</defs>
</svg>
