<svg width="40" height="40" viewBox="0 0 40 40" fill="none" xmlns="http://www.w3.org/2000/svg">
<g clip-path="url(#clip0_58_9586)">
<mask id="mask0_58_9586" style="mask-type:luminance" maskUnits="userSpaceOnUse" x="0" y="0" width="40" height="40">
<path d="M38.9999 39V1.00012H1V39H38.9999Z" fill="white" stroke="white" stroke-width="2"/>
</mask>
<g mask="url(#mask0_58_9586)">
<path d="M19.9992 14.6668C17.0536 14.6668 14.6657 17.0546 14.6657 20.0002C14.6657 22.9457 17.0536 25.3335 19.9992 25.3335C22.9447 25.3335 25.3326 22.9457 25.3326 20.0002C25.3326 17.0546 22.9447 14.6668 19.9992 14.6668ZM34.9689 16.1943L33.5249 17.383C31.8777 18.739 31.8777 21.2613 33.5249 22.6173L34.9689 23.8061C35.4807 24.2274 35.6128 24.9569 35.2814 25.5309L32.4301 30.4696C32.0986 31.0436 31.4008 31.2939 30.7801 31.0614L29.0285 30.4053C27.0306 29.6568 24.8463 30.9179 24.4955 33.0224L24.188 34.8673C24.0791 35.5211 23.5134 36.0004 22.8506 36.0004H17.1477C16.4849 36.0004 15.9192 35.5211 15.8103 34.8673L15.5028 33.0224C15.152 30.9179 12.9677 29.6568 10.9698 30.4053L9.21829 31.0614C8.59753 31.2939 7.8997 31.0436 7.56824 30.4696L4.71688 25.5309C4.38549 24.9569 4.51763 24.2274 5.02936 23.8061L6.47344 22.6173C8.12058 21.2613 8.12058 18.739 6.47344 17.383L5.02936 16.1943C4.51763 15.773 4.38549 15.0435 4.71688 14.4694L7.56824 9.53072C7.8997 8.95668 8.59753 8.70637 9.21829 8.93892L10.9698 9.59506C12.9677 10.3435 15.152 9.08244 15.5028 6.97795L15.8103 5.13298C15.9192 4.47921 16.4849 4.00001 17.1477 4.00001H22.8506C23.5134 4.00001 24.0791 4.47921 24.188 5.13298L24.4955 6.97795C24.8463 9.08244 27.0306 10.3435 29.0285 9.59506L30.7801 8.93892C31.4008 8.70637 32.0986 8.95668 32.4301 9.53072L35.2814 14.4694C35.6128 15.0435 35.4807 15.773 34.9689 16.1943Z" stroke="white" stroke-width="2" stroke-miterlimit="10" stroke-linecap="round" stroke-linejoin="round"/>
</g>
</g>
<defs>
<clipPath id="clip0_58_9586">
<rect width="40" height="40" fill="white"/>
</clipPath>
</defs>
</svg>
